<svg xmlns="http://www.w3.org/2000/svg" viewBox="0 0 667.6 80.19"><defs><style>.cls-1{fill:#283570;}</style></defs><g id="Layer_2" data-name="Layer 2"><g id="Layer_1-2" data-name="Layer 1"><path class="cls-1" d="M0,21.47,9.46,17.7l12.3,28.43c.95,2.13,1.86,4,2.36,5.24L41.84,17.68,59.56,51.37c.54-1.24,1.52-3.23,2.49-5.37L74.34,17.73l9.17,3.74-23.18,50L41.74,35.77,23.31,71.49Z"/><path class="cls-1" d="M85,44C85,29.32,95.82,18.3,110.17,18.3c8.78,0,16.49,4.13,20.21,10.71l-.12-10h10.09V69.17H130.26L130.38,59c-3.72,6.58-11.43,10.79-20.21,10.79C95.82,69.82,85,58.81,85,44Zm45.74-.23c0-9.51-7.71-16.91-17.66-16.91-10.11,0-17.71,7.28-17.71,16.91,0,9.85,7.6,17.3,17.71,17.3S130.78,53.6,130.78,43.81Z"/><path class="cls-1" d="M150,1.44h9.91l.18,67.73H150Z"/><path class="cls-1" d="M168.78,1.44h9.9l.18,67.73H168.78Z"/><path class="cls-1" d="M187.45,44c0-14.72,11.18-25.79,27-25.79,16.94,0,28.46,12.35,27,29.44l-43.54-.06c.58,8.14,7.85,14,17,14a20.21,20.21,0,0,0,16.23-7.13l7.9,4.71C233.21,66.27,225,70,214.93,70,198.37,70,187.45,58.82,187.45,44Zm44-3.93c-.76-8.34-7.36-13.81-16.85-13.81-9.14,0-16,5.69-16.72,13.81Z"/><path class="cls-1" d="M250.37,46V27.71h-7.23v-8.6h7.23V10.37L260.47,6V19.11h17.21v8.6H260.47V46c0,11.46,4,15.77,17.21,14.3v9.18C258.92,71.56,250.37,64.75,250.37,46Z"/><path class="cls-1" d="M354.6,66.39A30.52,30.52,0,0,1,335,59.23l5.71-6.5c3.85,3.32,8.86,5.49,13.13,5.42,4.48-.07,7.91-2.66,7.86-6.21-.05-4.12-2.09-5.84-8.45-7.63C342,41.39,336.76,37,336.76,28.91s6.9-14,16.7-14.16a24.64,24.64,0,0,1,16.8,6.41l-5.54,5.72a16.8,16.8,0,0,0-10.4-4c-4.58.06-7.77,2.6-7.77,6,0,3.54,2.25,5.43,8.37,7,11.34,2.7,16.79,7.74,16.83,16S364.63,66.24,354.6,66.39Z"/><path class="cls-1" d="M378.37,41.2V15.46H388.7V40.91c0,11,3.66,16.65,13.19,16.65,9.94,0,15.12-6.86,15.12-16.74V15.46h10.08V65.61H417V56.67a19.69,19.69,0,0,1-17.46,9.48C384.81,66.15,378.37,57.39,378.37,41.2Z"/><path class="cls-1" d="M445.8,43V65.61H435.72v-50H445.8l-.25,10c2.56-6.09,8.65-11.61,19.22-10.66v9.22C451.35,23,445.8,31.44,445.8,43Z"/><path class="cls-1" d="M485.58,53.61l-9,17.5,30.2,0v8.66l-44.49,0,14.58-28.89A19.15,19.15,0,0,1,466.88,34c0-10.69,8.61-19.79,21.33-19.79a24.17,24.17,0,0,1,5.75.67l7-14.87,9.6,3.62-8.37,15.23A19.27,19.27,0,0,1,509.42,34c0,10.86-8.53,19.75-21.27,19.75C487.27,53.74,486.42,53.69,485.58,53.61Zm-8.9-19.51a11.5,11.5,0,1,0,11.47-11.26A11.24,11.24,0,0,0,476.68,34.1Z"/><path class="cls-1" d="M514.63,40.49c0-14.73,11.18-25.8,27-25.8,16.94,0,28.46,12.35,27,29.44l-43.54-.05c.58,8.13,7.85,14,17,14A20.19,20.19,0,0,0,558.34,51l7.9,4.71c-5.85,7-14.1,10.77-24.13,10.77C525.55,66.44,514.63,55.27,514.63,40.49Zm44-3.94c-.76-8.33-7.36-13.8-16.85-13.8-9.14,0-16,5.69-16.72,13.8Z"/><path class="cls-1" d="M586.4,43V65.61H576.32v-50H586.4l-.25,10c2.56-6.09,8.65-11.61,19.22-10.66v9.22C592,23,586.4,31.44,586.4,43Z"/><path class="cls-1" d="M618.71,77.22l14.44-22.49L609.72,18.2l9.72-3.94L636.1,41.79c1.06,1.77,2.16,3.77,2.69,4.85a47.51,47.51,0,0,1,2.62-4.8l17-27.54,9.23,3.86-39.23,62Z"/><circle class="cls-1" cx="306.33" cy="40.81" r="11.23"/></g></g></svg>